<svg width="1297" height="283" fill="none" xmlns="http://www.w3.org/2000/svg"><path d="M456.144 183h-26.752v-41.192c0-3.04-.861-5.725-2.584-8.056-1.621-2.128-4.053-3.192-7.296-3.192-3.445 0-6.131 1.013-8.056 3.04-1.824 1.925-2.736 4.712-2.736 8.36V183h-26.904v-75.544h26.752v9.424h.152c5.371-7.296 12.565-10.944 21.584-10.944 9.829 0 17.024 3.901 21.584 11.704 6.992-7.803 15.504-11.704 25.536-11.704 11.045 0 18.696 4.661 22.952 13.984 2.229 5.168 3.344 10.944 3.344 17.328V183h-26.904v-41.344c0-3.243-.861-5.877-2.584-7.904-1.723-2.128-4.104-3.192-7.144-3.192-7.296 0-10.944 3.749-10.944 11.248V183zm93.639 37.24h-28.728l18.088-44.536-32.984-68.248h29.488l17.328 38.608h.152l14.288-38.608h28.424L549.783 220.24zm64.392-90.744h-13.832v-22.04h13.832v-6.384c0-9.93 2.584-17.936 7.752-24.016 5.472-6.485 13.63-9.728 24.472-9.728 5.371 0 9.88.659 13.528 1.976v20.824c-1.925-.507-4.509-.76-7.752-.76-7.498 0-11.248 4.053-11.248 12.16v5.928h29.336V67.632h27.208V183h-27.208v-53.504h-29.336V183h-26.752v-53.504zm96.779 15.808c0-5.472 1.115-10.691 3.344-15.656 2.331-5.067 5.472-9.323 9.424-12.768 8.208-7.397 17.936-11.096 29.184-11.096 11.147 0 20.824 3.597 29.032 10.792 8.208 7.397 12.312 16.771 12.312 28.12 0 11.552-4.154 21.128-12.464 28.728-8.106 7.499-17.936 11.248-29.488 11.248s-21.28-3.648-29.184-10.944c-8.106-7.397-12.16-16.872-12.16-28.424zm31.16-10.944c-2.736 3.04-4.104 6.587-4.104 10.64 0 4.256 1.419 7.853 4.256 10.792 2.736 3.141 6.182 4.712 10.336 4.712 4.155 0 7.651-1.571 10.488-4.712 2.736-3.04 4.104-6.637 4.104-10.792 0-4.053-1.368-7.6-4.104-10.64-2.837-3.04-6.333-4.56-10.488-4.56-4.154 0-7.65 1.52-10.488 4.56zM844.889 183h-25.232l-24.016-75.544h26.752l11.704 40.584h.152l13.224-40.584h21.888l13.528 40.888h.152l12.616-40.888h25.688L897.025 183h-25.536l-13.072-40.432h-.152L844.889 183zm161.071 0h-26.755v-41.192c0-3.04-.862-5.725-2.584-8.056-1.622-2.128-4.054-3.192-7.296-3.192-3.446 0-6.131 1.013-8.056 3.04-1.824 1.925-2.736 4.712-2.736 8.36V183h-26.904v-75.544h26.752v9.424h.152c5.37-7.296 12.565-10.944 21.584-10.944 9.829 0 17.024 3.901 21.583 11.704 6.99-7.803 15.5-11.704 25.54-11.704 11.04 0 18.69 4.661 22.95 13.984 2.23 5.168 3.34 10.944 3.34 17.328V183h-26.9v-41.344c0-3.243-.86-5.877-2.59-7.904-1.72-2.128-4.1-3.192-7.14-3.192-7.3 0-10.94 3.749-10.94 11.248V183zm95.77-56.696c-2.84 0-5.32.76-7.45 2.28-2.03 1.52-3.29 3.496-3.8 5.928l-22.49-4.864c1.41-8.309 5.77-14.491 13.07-18.544 6.99-3.648 14.18-5.472 21.58-5.472 14.19 0 24.47 4.611 30.86 13.832 3.24 4.965 4.86 10.741 4.86 17.328v34.048c0 4.965.2 9.019.61 12.16h-25.69c-.4-2.027-.61-4.965-.61-8.816l-.3-.152c-5.88 6.992-13.48 10.488-22.8 10.488-6.28 0-11.76-2.179-16.42-6.536-4.46-4.155-6.68-9.424-6.68-15.808 0-9.829 5.47-16.72 16.41-20.672 5.78-2.128 12.26-3.192 19.46-3.192h3.95c3.65 0 5.47-1.52 5.47-4.56 0-2.128-.91-3.901-2.73-5.32-1.73-1.419-4.16-2.128-7.3-2.128zm-1.52 39.52c3.44 0 6.23-.963 8.36-2.888 2.13-2.027 3.19-4.661 3.19-7.904v-2.28h-9.42c-2.23 0-4.31.557-6.23 1.672-1.83 1.216-2.74 2.888-2.74 5.016 0 1.723.66 3.243 1.98 4.56 1.41 1.216 3.04 1.824 4.86 1.824zm103.23-4.56v20.824c-3.65 1.419-8.41 2.128-14.29 2.128-8.92 0-16.01-2.483-21.28-7.448-5.37-4.763-8.06-11.805-8.06-21.128V129.8h-14.28v-22.344h14.89V82.984h26.3v24.472h17.48V129.8h-17.48v23.104c0 5.877 3.24 8.816 9.73 8.816 1.11 0 3.44-.152 6.99-.456zm88.11-9.272h-52.44c.81 3.749 2.64 6.587 5.48 8.512 2.73 2.128 6.03 3.192 9.88 3.192 5.67 0 10.08-2.533 13.22-7.6l22.19 7.752c-6.28 13.883-18.29 20.824-36.02 20.824-7.4 0-14.19-1.723-20.37-5.168-6.28-3.344-11.25-8.056-14.9-14.136-3.75-5.979-5.62-12.768-5.62-20.368 0-7.195 1.82-13.832 5.47-19.912 3.65-5.979 8.56-10.741 14.75-14.288 6.28-3.344 12.97-5.016 20.06-5.016 7.09 0 13.63 1.672 19.61 5.016 5.98 3.243 10.64 7.803 13.98 13.68 3.35 5.979 5.02 12.515 5.02 19.608 0 3.851-.1 6.485-.31 7.904zm-38.76-25.688c-3.04 0-5.87 1.013-8.51 3.04-2.43 2.027-4.05 4.611-4.86 7.752h26.29c-.4-3.344-1.77-5.979-4.1-7.904-2.33-1.925-5.27-2.888-8.82-2.888z" fill="#1E2239"/><circle cx="142.492" cy="141.5" r="141.5" fill="url(#paint0_linear)"/><g clip-path="url(#clip0)" opacity=".6"><path fill-rule="evenodd" clip-rule="evenodd" d="M127.292 267.406l.754.344c.31.537.202.927.133 1.183a.52.52 0 00-.035.189l-.724.642c-.414 0-.704-.147-.897-.248l-.921-.591c-.123-.693.345-1.234 1.247-1.444.138-.033.28-.058.443-.075zm50.461-21.713c1.291-.323 2.645-.222 3.815.28l1.029.819.6.87.373 1.226c-.056 1.785-1.283 3.976-4.59 4.795-.345.083-.726.159-1.135.216l-1.586-.273-1.129-.591-1.05-1.105a4.123 4.123 0 01.162-3.702c.698-1.233 1.974-2.154 3.511-2.535zm-94.852 4.096l1.035.797c-.512.881-.749 1.909-.941 2.896l-1.237.331c-.428-.378-.6-.932-.502-1.607.148-.99.823-1.985 1.645-2.417zm58.26-16.72c.941-.222 1.779.113 2.311.911l.349.512.114.285c.059.441-.03 1.25-1.306 1.737l-.103-.021-.207.243-.65.294c-1.064.042-1.779-.508-2.124-1.64l-.098-.638.207-.709.295-.391c.439-.306.828-.491 1.212-.583zm80.799-12.738c1.513-.007 2.557.561 3.009.805l1.809 1.232 1.102 1.735c.099.812.124 3.521-3.79 4.62l-2.467-.037-1.645-.716-1.504-1.623-.42-1.388.469-2.229 1.167-1.38 2.27-1.019zm-56.313-4.196c1.478.49 2.514 1.33 2.94 2.362.613 1.519-.283 2.78-.947 3.562l-.234.27-.265.309-.683.677-1.116.705-1.695.502c-1.654.064-3.156-.467-4.008-1.423-.927-1.041-.779-2.069-.431-2.841l.158-.314-.088-.117c-.035-.663.182-1.595 1.34-2.446l.555-.359.281.151 1.245-.752 2.948-.286zm-39.669-3.966c.645-.151 1.295-.08 1.822.201.966.512 1.183 1.486 1.301 2.006l-.197.621-.759.739-.699.247c-1.784-.101-2.473-1.464-2.7-1.913l-.01-.558.375-.81.453-.399c.153-.063.286-.1.414-.134zm-24.172.701c.744-.125 1.438.248 1.611.873.207.739-.39 1.427-1.399 1.486l-.68-.344c-.32-.538-.217-.932-.148-1.192a.54.54 0 00.03-.189l.586-.634zm120.73-9.323l1.99.136 1.447.569 1.413 1.182c.962 1.737.335 3.147.134 3.61l-.443.669-1.188 1.282-2.14.939a5.662 5.662 0 01-2.409-.427l-1.772-.94-1.23-1.416-.284-.897.276-1.88.87-1.296 1.756-1.16 1.58-.371zM182.643 191.1c1.767-.392 3.624.049 4.951 1.18l.683 1.089.22.979-.19 1.242c-.576 1.082-1.372 2.581-3.526 3.511l-1.41.25-1.175-.061-1.365-.391c-1.661-.954-2.464-2.563-2.1-4.209.371-1.731 1.903-3.144 3.912-3.59zm78.823-8.377a6.659 6.659 0 013.764.268l1.229.938.619.978.239 1.343-.097.37c-.194.931-.746 3.528-4.443 4.34l-2.154-.054-1.177-.448-1.178-.901c-.939-1.403-1.058-2.984-.343-4.339.671-1.242 1.961-2.149 3.541-2.495zm-49.551-4.196c1.437-.348 2.936-.111 4.483.708l1.209 1.368.447 1.32-.141 1.744c-.762 1.41-2.245 2.5-3.957 2.917-1.413.347-2.818.187-3.957-.445l-1.02-1.007-.534-.986-.243-1.327c.424-3.16 2.74-4.049 3.713-4.292zm48.432-12.743l1.824.023 1.242.563.922 1.045.482.035 1.069.452 1.051.987c.464.941.507 1.922.105 2.914l-.309.523-.859 1.056-1.583.79a4.12 4.12 0 01-1.805-.337l-.34-.168-.995-.622-.544-.708a4.062 4.062 0 01-1.818-1.091l.068-.081-.457-.296-.896-1.364c-.217-1.353.42-3.042 2.843-3.721zM96.61 170.936c.404-.092.808.029 1.158.134.113.038.275.088.335.093l.783.797c-.089.235-.113.323-.05.478l-.719.814c-.694-.017-1-.508-1.172-.776a1.26 1.26 0 00-.123-.185c.044.046.167.076.231.063l-1.216-.52c.049-.676.6-.856.773-.898zm69.69-17.397l.581.042.853.332.418.344c.358.636.219 1.168.108 1.444l-.058.133-.843.944-.635.269a2.32 2.32 0 01-.823-.12l-.158-.056-.945-.516-.355-.416-.168-.524.079-.554.508-.764.517-.34.921-.218zm25.128-8.225l.153.049 1.128.738.315.562c.005 1.414-1.118 1.788-1.463 1.868-.572.134-1.096.016-1.391-.073l-.176-.058-.32-.193-.424-.411-.187-.289-.167-.525.049-.499.389-.722.473-.382.33-.1a2.576 2.576 0 011.291.035zm97.736-4.316a2.38 2.38 0 011.019.205l.991.667.31.521c.03.407-.113.709-.222.898l-.773.851-.626.273a2.403 2.403 0 01-1.069-.197l-1-.676-.31-.533c-.025-.419.143-.725.222-.872l.827-.877.631-.26zm-155.986-2.514l.123.231-.601.802c-.641.071-1.055-.206-1.306-.378l-.106-.073-.091-.044-.808-.68c.049-.411.325-.718.749-.818.75-.177 1.67.409 2.04.96zm92.702-5.836l.739.184.399.218c.502.487.68 1.096.478 1.666-.197.567-.769 1.011-1.527 1.188-.764.176-1.518.046-2.03-.357a1.58 1.58 0 01-.586-1.641l.216-.36.523-.479.399-.205.921-.214h.468zm-20.967-3.544c.65-.151 1.074.147 1.281.29l1.093.39a.912.912 0 01-.103.806c-.419.629-1.695.776-2.419.31a1.3 1.3 0 01-.625-1.103l.374-.55c.133-.063.266-.109.399-.143zm65.251-34.04l1.227.265.512 1.578-.862.772c-.35-.067-.705.038-1.025.151-.837.285-1.557.306-2.217-.143l-.142-.856c.448-.512.901-.75 1.339-.986.375-.197.725-.386 1.168-.78z" fill="#1E2238" fill-opacity=".24"/></g><path fill-rule="evenodd" clip-rule="evenodd" d="M124.748 34.911c15.663-13.392 39.055 2.192 32.729 21.806l-7.766 24.073a228.08 228.08 0 00-10.856 78.472 207.625 207.625 0 0152.07-69.455l8.774-7.647c14.839-12.933 37.588.528 33.393 19.76l-6.603 30.275a124.995 124.995 0 00-1.925 42.002 118.186 118.186 0 0193.712-26.304l4.577.695c8.453 1.285 14.265 9.178 12.981 17.631-1.285 8.454-9.178 14.265-17.631 12.981l-4.578-.696a87.215 87.215 0 00-77.766 27.705c-12.285 13.575-34.77 7.639-38.754-10.231l-.714-3.204a155.976 155.976 0 01-.781-64.159 176.649 176.649 0 00-35.564 60.961l-1.572 4.634c-8.297 24.462-43.842 21.343-47.753-4.19a259.035 259.035 0 015.791-106.07c-38.576 38.994-59.32 92.37-69.493 146.624l-2.45 13.063C42.994 252.041 34.904 257.576 26.5 256c-8.404-1.576-13.939-9.666-12.363-18.069l2.45-13.064C29.477 156.114 60.05 90.229 113.216 44.77l11.531-9.859z" fill="#3F52FF"/><defs><linearGradient id="paint0_linear" x1="70.039" y1="38.394" x2="221.447" y2="269.067" gradientUnits="userSpaceOnUse"><stop stop-color="#FFD66C"/><stop offset="1" stop-color="#FFAC41"/></linearGradient><clipPath id="clip0"><path fill="#fff" d="M81 128h189v155H81z"/></clipPath></defs></svg>