<svg width="337" height="283" fill="none" xmlns="http://www.w3.org/2000/svg"><circle cx="142.492" cy="141.5" r="141.5" fill="url(#paint0_linear)"/><g clip-path="url(#clip0)" opacity=".6"><path fill-rule="evenodd" clip-rule="evenodd" d="M127.292 267.406l.754.344c.31.537.202.927.133 1.183a.52.52 0 00-.035.189l-.724.642c-.414 0-.704-.147-.897-.248l-.921-.591c-.123-.693.345-1.234 1.247-1.444.138-.033.28-.058.443-.075zm50.461-21.713c1.291-.323 2.645-.222 3.815.28l1.029.819.6.87.373 1.226c-.056 1.785-1.283 3.976-4.59 4.795-.345.083-.726.159-1.135.216l-1.586-.273-1.129-.591-1.05-1.105a4.123 4.123 0 01.162-3.702c.698-1.233 1.974-2.154 3.511-2.535zm-94.852 4.096l1.035.797c-.512.881-.749 1.909-.941 2.896l-1.237.331c-.428-.378-.6-.932-.502-1.607.148-.99.823-1.985 1.645-2.417zm58.26-16.72c.941-.222 1.779.113 2.311.911l.349.512.114.285c.059.441-.03 1.25-1.306 1.737l-.103-.021-.207.243-.65.294c-1.064.042-1.779-.508-2.124-1.64l-.098-.638.207-.709.295-.391c.439-.306.828-.491 1.212-.583zm80.799-12.738c1.513-.007 2.557.561 3.009.805l1.809 1.232 1.102 1.735c.099.812.124 3.521-3.79 4.62l-2.467-.037-1.645-.716-1.504-1.623-.42-1.388.469-2.229 1.167-1.38 2.27-1.019zm-56.313-4.196c1.478.49 2.514 1.33 2.94 2.362.613 1.519-.283 2.78-.947 3.562l-.234.27-.265.309-.683.677-1.116.705-1.695.502c-1.654.064-3.156-.467-4.008-1.423-.927-1.041-.779-2.069-.431-2.841l.158-.314-.088-.117c-.035-.663.182-1.595 1.34-2.446l.555-.359.281.151 1.245-.752 2.948-.286zm-39.669-3.966c.645-.151 1.295-.08 1.822.201.966.512 1.183 1.486 1.301 2.006l-.197.621-.759.739-.699.247c-1.784-.101-2.473-1.464-2.7-1.913l-.01-.558.375-.81.453-.399c.153-.063.286-.1.414-.134zm-24.172.701c.744-.125 1.438.248 1.611.873.207.739-.39 1.427-1.399 1.486l-.68-.344c-.32-.538-.217-.932-.148-1.192a.54.54 0 00.03-.189l.586-.634zm120.73-9.323l1.99.136 1.447.569 1.413 1.182c.962 1.737.335 3.147.134 3.61l-.443.669-1.188 1.282-2.14.939a5.662 5.662 0 01-2.409-.427l-1.772-.94-1.23-1.416-.284-.897.276-1.88.87-1.296 1.756-1.16 1.58-.371zM182.643 191.1c1.767-.392 3.624.049 4.951 1.18l.683 1.089.22.979-.19 1.242c-.576 1.082-1.372 2.581-3.526 3.511l-1.41.25-1.175-.061-1.365-.391c-1.661-.954-2.464-2.563-2.1-4.209.371-1.731 1.903-3.144 3.912-3.59zm78.823-8.377a6.659 6.659 0 013.764.268l1.229.938.619.978.239 1.343-.097.37c-.194.931-.746 3.528-4.443 4.34l-2.154-.054-1.177-.448-1.178-.901c-.939-1.403-1.058-2.984-.343-4.339.671-1.242 1.961-2.149 3.541-2.495zm-49.551-4.196c1.437-.348 2.936-.111 4.483.708l1.209 1.368.447 1.32-.141 1.744c-.762 1.41-2.245 2.5-3.957 2.917-1.413.347-2.818.187-3.957-.445l-1.02-1.007-.534-.986-.243-1.327c.424-3.16 2.74-4.049 3.713-4.292zm48.432-12.743l1.824.023 1.242.563.922 1.045.482.035 1.069.452 1.051.987c.464.941.507 1.922.105 2.914l-.309.523-.859 1.056-1.583.79a4.12 4.12 0 01-1.805-.337l-.34-.168-.995-.622-.544-.708a4.062 4.062 0 01-1.818-1.091l.068-.081-.457-.296-.896-1.364c-.217-1.353.42-3.042 2.843-3.721zM96.61 170.936c.404-.092.808.029 1.158.134.113.038.275.088.335.093l.783.797c-.089.235-.113.323-.05.478l-.719.814c-.694-.017-1-.508-1.172-.776a1.26 1.26 0 00-.123-.185c.044.046.167.076.231.063l-1.216-.52c.049-.676.6-.856.773-.898zm69.69-17.397l.581.042.853.332.418.344c.358.636.219 1.168.108 1.444l-.058.133-.843.944-.635.269a2.32 2.32 0 01-.823-.12l-.158-.056-.945-.516-.355-.416-.168-.524.079-.554.508-.764.517-.34.921-.218zm25.128-8.225l.153.049 1.128.738.315.562c.005 1.414-1.118 1.788-1.463 1.868-.572.134-1.096.016-1.391-.073l-.176-.058-.32-.193-.424-.411-.187-.289-.167-.525.049-.499.389-.722.473-.382.33-.1a2.576 2.576 0 011.291.035zm97.736-4.316a2.38 2.38 0 011.019.205l.991.667.31.521c.03.407-.113.709-.222.898l-.773.851-.626.273a2.403 2.403 0 01-1.069-.197l-1-.676-.31-.533c-.025-.419.143-.725.222-.872l.827-.877.631-.26zm-155.986-2.514l.123.231-.601.802c-.641.071-1.055-.206-1.306-.378l-.106-.073-.091-.044-.808-.68c.049-.411.325-.718.749-.818.75-.177 1.67.409 2.04.96zm92.702-5.836l.739.184.399.218c.502.487.68 1.096.478 1.666-.197.567-.769 1.011-1.527 1.188-.764.176-1.518.046-2.03-.357a1.58 1.58 0 01-.586-1.641l.216-.36.523-.479.399-.205.921-.214h.468zm-20.967-3.544c.65-.151 1.074.147 1.281.29l1.093.39a.912.912 0 01-.103.806c-.419.629-1.695.776-2.419.31a1.3 1.3 0 01-.625-1.103l.374-.55c.133-.063.266-.109.399-.143zm65.251-34.04l1.227.265.512 1.578-.862.772c-.35-.067-.705.038-1.025.151-.837.285-1.557.306-2.217-.143l-.142-.856c.448-.512.901-.75 1.339-.986.375-.197.725-.386 1.168-.78z" fill="#1E2238" fill-opacity=".24"/></g><path fill-rule="evenodd" clip-rule="evenodd" d="M124.748 34.911c15.663-13.392 39.055 2.192 32.729 21.806l-7.766 24.073a228.08 228.08 0 00-10.856 78.472 207.625 207.625 0 0152.07-69.455l8.774-7.647c14.839-12.933 37.588.528 33.393 19.76l-6.603 30.275a124.995 124.995 0 00-1.925 42.002 118.186 118.186 0 0193.712-26.304l4.577.695c8.453 1.285 14.265 9.178 12.981 17.631-1.285 8.454-9.178 14.265-17.631 12.981l-4.578-.696a87.215 87.215 0 00-77.766 27.705c-12.285 13.575-34.77 7.639-38.754-10.231l-.714-3.204a155.976 155.976 0 01-.781-64.159 176.649 176.649 0 00-35.564 60.961l-1.572 4.634c-8.297 24.462-43.842 21.343-47.753-4.19a259.035 259.035 0 015.791-106.07c-38.576 38.994-59.32 92.37-69.493 146.624l-2.45 13.063C42.994 252.041 34.904 257.576 26.5 256c-8.404-1.576-13.939-9.666-12.363-18.069l2.45-13.064C29.477 156.114 60.05 90.229 113.216 44.77l11.531-9.859z" fill="#3F52FF"/><defs><linearGradient id="paint0_linear" x1="70.039" y1="38.394" x2="221.447" y2="269.067" gradientUnits="userSpaceOnUse"><stop stop-color="#FFD66C"/><stop offset="1" stop-color="#FFAC41"/></linearGradient><clipPath id="clip0"><path fill="#fff" d="M81 128h189v155H81z"/></clipPath></defs></svg>