<svg width="1297" height="283" viewBox="0 0 1297 283" fill="none" xmlns="http://www.w3.org/2000/svg">
<path d="M456.144 183H429.392V141.808C429.392 138.768 428.531 136.083 426.808 133.752C425.187 131.624 422.755 130.56 419.512 130.56C416.067 130.56 413.381 131.573 411.456 133.6C409.632 135.525 408.72 138.312 408.72 141.96V183H381.816V107.456H408.568V116.88H408.72C414.091 109.584 421.285 105.936 430.304 105.936C440.133 105.936 447.328 109.837 451.888 117.64C458.88 109.837 467.392 105.936 477.424 105.936C488.469 105.936 496.12 110.597 500.376 119.92C502.605 125.088 503.72 130.864 503.72 137.248V183H476.816V141.656C476.816 138.413 475.955 135.779 474.232 133.752C472.509 131.624 470.128 130.56 467.088 130.56C459.792 130.56 456.144 134.309 456.144 141.808V183ZM549.783 220.24H521.055L539.143 175.704L506.159 107.456H535.647L552.975 146.064H553.127L567.415 107.456H595.839L549.783 220.24ZM614.175 129.496H600.343V107.456H614.175V101.072C614.175 91.1413 616.759 83.136 621.927 77.056C627.399 70.5707 635.557 67.328 646.399 67.328C651.77 67.328 656.279 67.9867 659.927 69.304V90.128C658.002 89.6213 655.418 89.368 652.175 89.368C644.677 89.368 640.927 93.4213 640.927 101.528V107.456H670.263V67.632H697.471V183H670.263V129.496H640.927V183H614.175V129.496ZM710.954 145.304C710.954 139.832 712.069 134.613 714.298 129.648C716.629 124.581 719.77 120.325 723.722 116.88C731.93 109.483 741.658 105.784 752.906 105.784C764.053 105.784 773.73 109.381 781.938 116.576C790.146 123.973 794.25 133.347 794.25 144.696C794.25 156.248 790.096 165.824 781.786 173.424C773.68 180.923 763.85 184.672 752.298 184.672C740.746 184.672 731.018 181.024 723.114 173.728C715.008 166.331 710.954 156.856 710.954 145.304ZM742.114 134.36C739.378 137.4 738.01 140.947 738.01 145C738.01 149.256 739.429 152.853 742.266 155.792C745.002 158.933 748.448 160.504 752.602 160.504C756.757 160.504 760.253 158.933 763.09 155.792C765.826 152.752 767.194 149.155 767.194 145C767.194 140.947 765.826 137.4 763.09 134.36C760.253 131.32 756.757 129.8 752.602 129.8C748.448 129.8 744.952 131.32 742.114 134.36ZM844.889 183H819.657L795.641 107.456H822.393L834.097 148.04H834.249L847.473 107.456H869.361L882.889 148.344H883.041L895.657 107.456H921.345L897.025 183H871.489L858.417 142.568H858.265L844.889 183ZM1005.96 183H979.205V141.808C979.205 138.768 978.343 136.083 976.621 133.752C974.999 131.624 972.567 130.56 969.325 130.56C965.879 130.56 963.194 131.573 961.269 133.6C959.445 135.525 958.533 138.312 958.533 141.96V183H931.629V107.456H958.381V116.88H958.533C963.903 109.584 971.098 105.936 980.117 105.936C989.946 105.936 997.141 109.837 1001.7 117.64C1008.69 109.837 1017.2 105.936 1027.24 105.936C1038.28 105.936 1045.93 110.597 1050.19 119.92C1052.42 125.088 1053.53 130.864 1053.53 137.248V183H1026.63V141.656C1026.63 138.413 1025.77 135.779 1024.04 133.752C1022.32 131.624 1019.94 130.56 1016.9 130.56C1009.6 130.56 1005.96 134.309 1005.96 141.808V183ZM1101.73 126.304C1098.89 126.304 1096.41 127.064 1094.28 128.584C1092.25 130.104 1090.99 132.08 1090.48 134.512L1067.99 129.648C1069.4 121.339 1073.76 115.157 1081.06 111.104C1088.05 107.456 1095.24 105.632 1102.64 105.632C1116.83 105.632 1127.11 110.243 1133.5 119.464C1136.74 124.429 1138.36 130.205 1138.36 136.792V170.84C1138.36 175.805 1138.56 179.859 1138.97 183H1113.28C1112.88 180.973 1112.67 178.035 1112.67 174.184L1112.37 174.032C1106.49 181.024 1098.89 184.52 1089.57 184.52C1083.29 184.52 1077.81 182.341 1073.15 177.984C1068.69 173.829 1066.47 168.56 1066.47 162.176C1066.47 152.347 1071.94 145.456 1082.88 141.504C1088.66 139.376 1095.14 138.312 1102.34 138.312H1106.29C1109.94 138.312 1111.76 136.792 1111.76 133.752C1111.76 131.624 1110.85 129.851 1109.03 128.432C1107.3 127.013 1104.87 126.304 1101.73 126.304ZM1100.21 165.824C1103.65 165.824 1106.44 164.861 1108.57 162.936C1110.7 160.909 1111.76 158.275 1111.76 155.032V152.752H1102.34C1100.11 152.752 1098.03 153.309 1096.11 154.424C1094.28 155.64 1093.37 157.312 1093.37 159.44C1093.37 161.163 1094.03 162.683 1095.35 164C1096.76 165.216 1098.39 165.824 1100.21 165.824ZM1203.44 161.264V182.088C1199.79 183.507 1195.03 184.216 1189.15 184.216C1180.23 184.216 1173.14 181.733 1167.87 176.768C1162.5 172.005 1159.81 164.963 1159.81 155.64V129.8H1145.53V107.456H1160.42V82.984H1186.72V107.456H1204.2V129.8H1186.72V152.904C1186.72 158.781 1189.96 161.72 1196.45 161.72C1197.56 161.72 1199.89 161.568 1203.44 161.264ZM1291.55 151.992H1239.11C1239.92 155.741 1241.75 158.579 1244.59 160.504C1247.32 162.632 1250.62 163.696 1254.47 163.696C1260.14 163.696 1264.55 161.163 1267.69 156.096L1289.88 163.848C1283.6 177.731 1271.59 184.672 1253.86 184.672C1246.46 184.672 1239.67 182.949 1233.49 179.504C1227.21 176.16 1222.24 171.448 1218.59 165.368C1214.84 159.389 1212.97 152.6 1212.97 145C1212.97 137.805 1214.79 131.168 1218.44 125.088C1222.09 119.109 1227 114.347 1233.19 110.8C1239.47 107.456 1246.16 105.784 1253.25 105.784C1260.34 105.784 1266.88 107.456 1272.86 110.8C1278.84 114.043 1283.5 118.603 1286.84 124.48C1290.19 130.459 1291.86 136.995 1291.86 144.088C1291.86 147.939 1291.76 150.573 1291.55 151.992ZM1252.79 126.304C1249.75 126.304 1246.92 127.317 1244.28 129.344C1241.85 131.371 1240.23 133.955 1239.42 137.096H1265.71C1265.31 133.752 1263.94 131.117 1261.61 129.192C1259.28 127.267 1256.34 126.304 1252.79 126.304Z" fill="#1E2239"/>
<circle cx="142.492" cy="141.5" r="141.5" fill="url(#paint0_linear)"/>
<g style="mix-blend-mode:multiply" opacity="0.6">
<g clip-path="url(#clip0)">
<g style="mix-blend-mode:multiply">
<path fill-rule="evenodd" clip-rule="evenodd" d="M127.292 267.406L128.046 267.75C128.356 268.287 128.248 268.677 128.179 268.933C128.154 269.013 128.139 269.076 128.144 269.122L127.42 269.764C127.006 269.764 126.716 269.617 126.523 269.516L125.602 268.925C125.479 268.232 125.947 267.691 126.849 267.481C126.987 267.448 127.129 267.423 127.292 267.406ZM177.753 245.693C179.044 245.37 180.398 245.471 181.568 245.973L182.597 246.792L183.197 247.662L183.57 248.888C183.514 250.673 182.287 252.864 178.98 253.683C178.635 253.766 178.254 253.842 177.845 253.899L176.259 253.626L175.13 253.035L174.08 251.93C173.544 250.704 173.607 249.39 174.242 248.228C174.94 246.995 176.216 246.074 177.753 245.693ZM82.9014 249.789L83.9359 250.586C83.4236 251.467 83.1871 252.495 82.995 253.482L81.7585 253.813C81.3299 253.435 81.1575 252.881 81.256 252.206C81.4038 251.216 82.0787 250.221 82.9014 249.789ZM141.161 233.069C142.102 232.847 142.94 233.182 143.472 233.98L143.821 234.492L143.935 234.777C143.994 235.218 143.905 236.027 142.629 236.514L142.526 236.493L142.319 236.736L141.669 237.03C140.605 237.072 139.89 236.522 139.545 235.39L139.447 234.752L139.654 234.043L139.949 233.652C140.388 233.346 140.777 233.161 141.161 233.069ZM221.96 220.331C223.473 220.324 224.517 220.892 224.969 221.136L226.778 222.368L227.88 224.103C227.979 224.915 228.004 227.624 224.09 228.723L221.623 228.686L219.978 227.97L218.474 226.347L218.054 224.959L218.523 222.73L219.69 221.35L221.96 220.331ZM165.647 216.135C167.125 216.625 168.161 217.465 168.587 218.497C169.2 220.016 168.304 221.277 167.64 222.059L167.406 222.329L167.141 222.638L166.458 223.315L165.342 224.02L163.647 224.522C161.993 224.586 160.491 224.055 159.639 223.099C158.712 222.058 158.86 221.03 159.208 220.258L159.366 219.944L159.278 219.827C159.243 219.164 159.46 218.232 160.618 217.381L161.173 217.022L161.454 217.173L162.699 216.421L165.647 216.135ZM125.978 212.169C126.623 212.018 127.273 212.089 127.8 212.37C128.766 212.882 128.983 213.856 129.101 214.376L128.904 214.997L128.145 215.736L127.446 215.983C125.662 215.882 124.973 214.519 124.746 214.07L124.736 213.512L125.111 212.702L125.564 212.303C125.717 212.24 125.85 212.203 125.978 212.169ZM101.806 212.87C102.55 212.745 103.244 213.118 103.417 213.743C103.624 214.482 103.027 215.17 102.018 215.229L101.338 214.885C101.018 214.347 101.121 213.953 101.19 213.693C101.215 213.605 101.224 213.55 101.22 213.504L101.806 212.87ZM222.536 203.547L224.526 203.683L225.973 204.252L227.386 205.434C228.348 207.171 227.721 208.581 227.52 209.044L227.077 209.713L225.889 210.995L223.749 211.934C222.553 211.984 221.7 211.65 221.34 211.507L219.568 210.567L218.338 209.151L218.054 208.254L218.33 206.374L219.2 205.078L220.956 203.918L222.536 203.547ZM182.643 191.1C184.41 190.708 186.267 191.149 187.594 192.28L188.277 193.369L188.497 194.348L188.307 195.59C187.731 196.672 186.935 198.171 184.781 199.101L183.371 199.351L182.196 199.29L180.831 198.899C179.17 197.945 178.367 196.336 178.731 194.69C179.102 192.959 180.634 191.546 182.643 191.1ZM261.466 182.723C262.703 182.448 264.015 182.538 265.23 182.991L266.459 183.929L267.078 184.907L267.317 186.25L267.22 186.62C267.026 187.551 266.474 190.148 262.777 190.96L260.623 190.906L259.446 190.458L258.268 189.557C257.329 188.154 257.21 186.573 257.925 185.218C258.596 183.976 259.886 183.069 261.466 182.723ZM211.915 178.527C213.352 178.179 214.851 178.416 216.398 179.235L217.607 180.603L218.054 181.923L217.913 183.667C217.151 185.077 215.668 186.167 213.956 186.584C212.543 186.931 211.138 186.771 209.999 186.139L208.979 185.132L208.445 184.146L208.202 182.819C208.626 179.659 210.942 178.77 211.915 178.527ZM260.347 165.784L262.171 165.807L263.413 166.37L264.335 167.415L264.817 167.45L265.886 167.902L266.937 168.889C267.401 169.83 267.444 170.811 267.042 171.803L266.733 172.326L265.874 173.382L264.291 174.172C263.401 174.212 262.733 173.939 262.486 173.835L262.146 173.667L261.151 173.045L260.607 172.337C259.853 172.128 259.222 171.699 258.789 171.246L258.857 171.165L258.4 170.869L257.504 169.505C257.287 168.152 257.924 166.463 260.347 165.784ZM96.61 170.936C97.0139 170.844 97.4179 170.965 97.7676 171.07C97.8809 171.108 98.0435 171.158 98.1026 171.163L98.8859 171.96C98.7972 172.195 98.7726 172.283 98.8366 172.438L98.1174 173.252C97.4228 173.235 97.1174 172.744 96.9449 172.476C96.9105 172.413 96.8464 172.316 96.8218 172.291C96.8661 172.337 96.9893 172.367 97.0533 172.354L95.8365 171.834C95.8858 171.158 96.4375 170.978 96.61 170.936ZM166.3 153.539L166.881 153.581L167.734 153.913L168.152 154.257C168.51 154.893 168.371 155.425 168.26 155.701L168.202 155.834L167.359 156.778L166.724 157.047C166.373 157.06 166.091 156.99 165.901 156.927L165.743 156.871L164.798 156.355L164.443 155.939L164.275 155.415L164.354 154.861L164.862 154.097L165.379 153.757L166.3 153.539ZM191.428 145.314L191.581 145.363L192.709 146.101L193.024 146.663C193.029 148.077 191.906 148.451 191.561 148.531C190.989 148.665 190.465 148.547 190.17 148.458L189.994 148.4L189.674 148.207L189.25 147.796L189.063 147.507L188.896 146.982L188.945 146.483L189.334 145.761L189.807 145.379L190.137 145.279C190.697 145.148 191.168 145.24 191.428 145.314ZM289.164 140.998C289.671 140.985 290.046 141.144 290.183 141.203L291.174 141.87L291.484 142.391C291.514 142.798 291.371 143.1 291.262 143.289L290.489 144.14L289.863 144.413C289.321 144.434 288.937 144.279 288.794 144.216L287.794 143.54L287.484 143.007C287.459 142.588 287.627 142.282 287.706 142.135L288.533 141.258L289.164 140.998ZM133.178 138.484L133.301 138.715L132.7 139.517C132.059 139.588 131.645 139.311 131.394 139.139L131.288 139.066L131.197 139.022L130.389 138.342C130.438 137.931 130.714 137.624 131.138 137.524C131.888 137.347 132.808 137.933 133.178 138.484ZM225.88 132.648L226.619 132.832L227.018 133.05C227.52 133.537 227.698 134.146 227.496 134.716C227.299 135.283 226.727 135.727 225.969 135.904C225.205 136.08 224.451 135.95 223.939 135.547C223.427 135.148 223.21 134.548 223.353 133.906L223.569 133.546L224.092 133.067L224.491 132.862L225.412 132.648H225.88ZM204.913 129.104C205.563 128.953 205.987 129.251 206.194 129.394L207.287 129.784C207.381 130.061 207.342 130.351 207.184 130.59C206.765 131.219 205.489 131.366 204.765 130.9C204.366 130.644 204.145 130.25 204.14 129.797L204.514 129.247C204.647 129.184 204.78 129.138 204.913 129.104ZM270.164 95.0648L271.391 95.3292L271.903 96.9069L271.041 97.6789C270.691 97.6118 270.336 97.7167 270.016 97.83C269.179 98.1153 268.459 98.1363 267.799 97.6873L267.657 96.8313C268.105 96.3194 268.558 96.0803 268.996 95.8453C269.371 95.6481 269.721 95.4593 270.164 95.0648Z" fill="#1E2238" fill-opacity="0.24"/>
</g>
</g>
</g>
<path fill-rule="evenodd" clip-rule="evenodd" d="M124.748 34.9112C140.411 21.5186 163.803 37.1033 157.477 56.7167L149.711 80.79C141.522 106.178 137.871 132.739 138.855 159.262C151.089 132.775 168.807 109.085 190.925 89.8071L199.699 82.1597C214.538 69.2266 237.287 82.6883 233.092 101.92L226.489 132.195C223.474 146.015 222.833 160.217 224.564 174.197C250.37 152.541 284.462 142.756 318.276 147.893L322.853 148.588C331.306 149.873 337.118 157.766 335.834 166.219C334.549 174.673 326.656 180.484 318.203 179.2L313.625 178.504C284.697 174.109 255.492 184.514 235.859 206.209C223.574 219.784 201.089 213.848 197.105 195.978L196.391 192.774C191.685 171.662 191.423 149.814 195.61 128.615C179.825 146.281 167.703 167 160.046 189.576L158.474 194.21C150.177 218.672 114.632 215.553 110.721 190.02C105.296 154.596 107.287 118.481 116.512 83.9503C77.9358 122.944 57.1919 176.32 47.0189 230.574L44.5694 243.637C42.9936 252.041 34.9037 257.576 26.5 256C18.0963 254.424 12.5612 246.334 14.137 237.931L16.5864 224.867C29.4784 156.114 60.0496 90.2288 113.217 44.7701L124.748 34.9112Z" fill="#3F52FF"/>
<defs>
<linearGradient id="paint0_linear" x1="70.039" y1="38.3939" x2="221.447" y2="269.067" gradientUnits="userSpaceOnUse">
<stop stop-color="#FFD66C"/>
<stop offset="1" stop-color="#FFAC41"/>
</linearGradient>
<clipPath id="clip0">
<rect x="81" y="128" width="189" height="155" fill="white"/>
</clipPath>
</defs>
</svg>
